<?xml version="1.0" standalone="no"?>
<!DOCTYPE svg PUBLIC "-//W3C//DTD SVG 20010904//EN"
 "http://www.w3.org/TR/2001/REC-SVG-20010904/DTD/svg10.dtd">
<svg version="1.0" xmlns="http://www.w3.org/2000/svg"
 width="692.000000pt" height="692.000000pt" viewBox="0 0 692.000000 692.000000"
 preserveAspectRatio="xMidYMid meet">
<metadata>
Created by potrace 1.11, written by Peter Selinger 2001-2013
</metadata>
<g transform="translate(0.000000,692.000000) scale(0.100000,-0.100000)"
fill="#000000" stroke="none">
<path d="M3585 5769 c-139 -14 -271 -61 -426 -150 -125 -72 -149 -92 -584
-474 -50 -44 -112 -98 -139 -120 -26 -22 -53 -45 -59 -50 -35 -31 -143 -109
-217 -157 -183 -118 -331 -168 -498 -169 -182 -1 -353 55 -593 192 -89 52
-222 102 -299 113 -25 4 -70 11 -100 15 -102 16 -267 5 -351 -22 -211 -67
-312 -216 -312 -457 0 -169 32 -321 113 -535 48 -128 71 -169 190 -334 219
-304 297 -491 345 -831 4 -25 16 -76 27 -115 71 -243 202 -343 498 -379 182
-23 240 -36 300 -66 57 -29 93 -73 159 -193 64 -118 91 -164 104 -182 4 -5 27
-38 50 -71 154 -223 363 -394 481 -394 18 0 114 23 212 51 99 28 186 52 194
54 8 2 62 15 120 28 130 32 256 55 390 72 25 3 61 8 80 11 19 2 141 6 270 8
242 4 308 0 515 -30 210 -31 476 -116 705 -226 194 -93 265 -119 430 -158 206
-49 453 -66 700 -47 381 29 715 158 888 342 142 151 175 316 102 520 -81 230
-155 454 -200 610 -46 161 -123 465 -134 530 -2 17 -14 82 -25 145 -20 116
-28 167 -35 250 -11 114 -23 175 -54 275 -10 31 -47 110 -73 155 -55 96 -157
198 -272 272 -125 81 -189 109 -403 177 -184 59 -300 116 -532 262 -86 54
-269 183 -282 198 -3 4 -21 19 -40 34 -85 69 -180 172 -272 295 -110 147 -235
278 -343 360 -85 64 -246 145 -335 167 -81 21 -217 32 -295 24z"/>
</g>
</svg>
