<?xml version="1.0" standalone="no"?>
<!DOCTYPE svg PUBLIC "-//W3C//DTD SVG 20010904//EN"
 "http://www.w3.org/TR/2001/REC-SVG-20010904/DTD/svg10.dtd">
<svg version="1.0" xmlns="http://www.w3.org/2000/svg"
 width="1382.000000pt" height="1382.000000pt" viewBox="0 0 1382.000000 1382.000000"
 preserveAspectRatio="xMidYMid meet">
<metadata>
Created by potrace 1.11, written by Peter Selinger 2001-2013
</metadata>
<g transform="translate(0.000000,1382.000000) scale(0.100000,-0.100000)"
fill="#000000" stroke="none">
<path d="M7188 11535 c-2 -2 -25 -6 -53 -9 -27 -4 -63 -9 -80 -12 -16 -3 -39
-7 -50 -9 -64 -11 -170 -37 -180 -45 -5 -5 -13 -8 -18 -8 -13 0 -122 -35 -127
-41 -3 -3 -12 -7 -20 -9 -46 -10 -327 -149 -350 -172 -3 -3 -16 -11 -30 -18
-33 -16 -59 -33 -84 -54 -11 -10 -24 -18 -28 -18 -5 0 -14 -5 -21 -10 -7 -6
-60 -46 -119 -89 -59 -44 -114 -85 -121 -93 -7 -7 -31 -26 -52 -43 -21 -16
-48 -39 -61 -50 -12 -11 -45 -40 -74 -65 -29 -25 -65 -56 -80 -70 -15 -14 -56
-50 -91 -81 -129 -113 -218 -191 -259 -229 -16 -14 -54 -47 -85 -75 -73 -64
-104 -91 -135 -119 -14 -13 -77 -67 -140 -120 -63 -54 -130 -111 -148 -127
-19 -16 -36 -29 -38 -29 -3 0 -39 -29 -68 -55 -6 -6 -58 -45 -116 -88 -58 -43
-112 -84 -120 -90 -28 -22 -75 -51 -79 -48 -2 1 -7 -2 -10 -7 -7 -12 -199
-132 -215 -135 -6 -1 -13 -5 -16 -9 -6 -7 -197 -99 -215 -103 -5 -1 -23 -8
-40 -14 -40 -17 -174 -59 -205 -65 -14 -2 -47 -9 -73 -15 -175 -40 -476 -30
-682 23 -114 29 -287 89 -365 125 -30 14 -57 25 -60 26 -22 4 -293 148 -375
200 -73 45 -194 105 -214 105 -9 0 -21 4 -26 9 -18 16 -237 80 -330 96 -16 2
-41 7 -55 10 -14 3 -41 7 -60 10 -19 3 -46 7 -60 9 -62 12 -175 19 -290 18
-175 -1 -243 -8 -370 -37 -14 -3 -35 -8 -48 -11 -33 -7 -144 -49 -183 -70 -19
-10 -36 -18 -39 -19 -3 0 -32 -19 -65 -42 -119 -82 -194 -169 -260 -299 -25
-49 -45 -94 -45 -101 0 -6 -5 -24 -11 -40 -7 -15 -13 -37 -15 -48 -2 -11 -10
-58 -18 -105 -14 -80 -15 -331 -2 -430 7 -56 15 -113 21 -140 14 -68 17 -87
19 -105 1 -11 5 -26 9 -32 5 -7 6 -13 3 -13 -2 0 0 -15 5 -32 6 -18 12 -40 14
-48 13 -59 47 -174 87 -295 25 -78 27 -84 29 -93 1 -4 10 -24 20 -44 10 -21
19 -42 19 -47 0 -5 5 -22 12 -38 6 -15 12 -30 12 -33 8 -39 90 -208 128 -262
10 -14 18 -30 18 -36 0 -5 8 -18 17 -30 10 -11 25 -30 33 -42 8 -13 31 -44 50
-71 19 -27 51 -71 70 -98 19 -28 38 -50 43 -51 4 0 7 -7 7 -15 0 -7 6 -18 13
-22 7 -4 23 -25 36 -46 13 -21 28 -43 35 -50 38 -40 215 -325 261 -422 16 -33
32 -62 35 -65 3 -3 10 -18 17 -35 13 -34 81 -200 94 -230 9 -20 37 -99 40
-113 6 -26 29 -109 45 -157 7 -22 15 -56 19 -75 11 -61 12 -65 18 -80 3 -8 8
-33 12 -55 3 -22 8 -53 11 -70 3 -16 7 -39 8 -50 2 -11 6 -33 10 -50 3 -16 8
-50 11 -75 8 -67 29 -172 48 -235 6 -22 12 -44 13 -50 0 -5 4 -18 8 -27 4 -9
9 -22 10 -30 10 -46 91 -213 138 -283 59 -88 182 -203 270 -253 80 -45 260
-112 303 -112 13 0 26 -4 29 -8 2 -4 24 -9 47 -11 23 -1 47 -5 52 -8 6 -3 28
-8 51 -10 23 -1 57 -6 76 -9 19 -3 53 -7 75 -9 22 -1 58 -5 80 -9 22 -3 60 -8
85 -11 176 -23 365 -83 418 -132 7 -7 17 -13 22 -13 11 0 102 -90 128 -127 12
-17 45 -76 73 -130 77 -149 163 -300 234 -415 29 -46 111 -168 139 -204 17
-23 40 -55 51 -70 74 -103 158 -199 294 -333 112 -111 300 -261 328 -261 7 0
13 -4 13 -8 0 -7 88 -51 108 -53 4 0 12 -4 17 -9 33 -25 179 -37 213 -16 6 4
12 5 12 2 0 -2 15 0 33 5 31 10 43 13 90 25 27 6 31 8 82 22 22 6 43 12 48 12
4 0 24 7 45 16 20 9 46 17 57 19 11 1 54 12 95 24 41 12 85 24 98 27 13 2 42
11 65 18 47 16 379 99 442 110 11 2 34 7 50 11 17 3 43 8 58 11 16 2 32 6 37
9 4 3 25 7 46 10 22 3 50 7 64 10 14 3 39 7 55 10 17 3 44 7 60 10 76 13 99
17 124 20 14 2 26 4 26 5 0 1 14 3 30 5 17 2 50 6 75 10 25 3 61 8 80 10 19 1
35 4 35 5 0 1 18 3 40 4 22 2 40 4 40 5 0 1 32 4 70 7 39 3 95 7 125 9 161 13
246 16 460 16 225 0 296 -2 475 -16 111 -9 150 -13 150 -15 0 -2 84 -10 145
-15 25 -2 45 -4 45 -5 0 -1 16 -3 35 -6 19 -2 49 -6 65 -9 17 -3 47 -8 68 -10
21 -3 47 -9 56 -15 10 -5 20 -7 23 -5 2 3 45 -4 94 -15 49 -12 100 -23 114
-26 20 -4 110 -27 235 -60 11 -3 25 -6 32 -8 7 -1 16 -5 19 -9 4 -4 18 -7 30
-7 13 0 26 -4 29 -10 3 -5 16 -10 29 -10 12 0 26 -3 30 -7 3 -4 17 -8 29 -10
12 -2 31 -7 42 -12 11 -6 52 -21 90 -34 90 -32 266 -102 330 -132 28 -12 80
-37 117 -54 37 -17 71 -31 77 -31 5 0 11 -3 13 -7 5 -12 297 -151 326 -156 10
-2 26 -8 37 -14 21 -11 266 -92 299 -99 10 -2 34 -8 52 -14 18 -6 45 -13 61
-16 15 -3 46 -10 68 -16 22 -5 51 -12 65 -14 14 -2 36 -7 50 -10 57 -13 67
-15 100 -19 19 -2 51 -6 70 -10 58 -11 92 -15 150 -21 30 -2 69 -7 85 -9 84
-14 225 -20 460 -20 238 0 343 4 495 21 30 3 71 7 90 9 19 2 46 6 60 8 29 6
118 20 140 22 22 2 85 15 175 36 44 10 92 20 107 23 15 2 31 7 36 10 5 3 20 7
33 9 14 3 58 15 99 28 41 12 78 24 83 25 4 1 9 3 12 4 3 1 8 3 13 5 4 1 15 5
24 9 9 4 25 9 35 11 10 2 19 4 21 5 1 2 5 3 10 4 4 1 29 12 56 24 27 12 51 22
54 22 3 0 30 12 61 27 31 15 58 28 61 28 11 2 105 50 110 56 3 3 25 16 50 30
25 13 68 41 97 61 29 21 56 38 62 38 5 0 12 7 15 16 4 9 9 15 12 12 10 -10
192 162 244 230 14 18 33 43 43 54 9 12 17 25 17 29 0 4 6 14 13 21 6 7 24 38
38 68 78 161 98 254 94 425 -2 72 -9 146 -15 165 -6 19 -13 50 -16 68 -3 18
-18 67 -34 110 -15 42 -49 136 -74 207 -26 72 -52 144 -59 160 -6 17 -12 35
-13 40 -3 17 -36 109 -45 127 -5 10 -9 25 -9 33 0 8 -4 23 -9 33 -11 21 -39
102 -81 242 -17 58 -34 112 -38 120 -3 8 -7 20 -7 25 -1 6 -5 18 -9 27 -4 9
-9 25 -11 35 -2 10 -4 20 -6 23 -1 3 -3 10 -4 15 0 6 -12 44 -24 85 -37 119
-44 145 -44 150 0 3 -4 16 -9 30 -5 14 -12 36 -14 50 -3 14 -8 36 -13 50 -9
27 -26 87 -37 135 -4 17 -8 35 -10 40 -2 6 -5 19 -8 30 -2 11 -9 32 -14 46 -6
15 -8 30 -5 33 3 3 1 11 -5 18 -6 7 -10 15 -10 18 1 10 -24 126 -33 150 -5 14
-11 39 -14 55 -2 17 -9 45 -14 63 -5 18 -10 35 -10 37 -1 3 -1 6 -2 8 -2 6 -9
45 -14 72 -2 17 -10 53 -16 80 -5 28 -12 61 -15 75 -2 14 -7 36 -10 50 -3 14
-8 35 -10 48 -2 12 -7 34 -10 50 -3 15 -7 41 -9 57 -2 17 -4 31 -5 33 -2 1 -4
11 -5 22 -1 11 -3 21 -4 23 -2 1 -4 14 -6 28 -3 25 -7 48 -20 124 -11 65 -15
92 -21 145 -3 30 -8 66 -10 80 -7 37 -13 86 -19 175 -6 79 -12 125 -15 135 -1
3 -2 8 -1 12 0 4 -9 53 -20 110 -26 128 -85 308 -138 415 -40 82 -130 232
-153 258 -7 7 -24 28 -38 47 -34 46 -205 217 -260 260 -59 46 -227 159 -265
178 -16 8 -32 17 -35 20 -7 7 -164 84 -225 110 -79 34 -172 69 -285 106 -58
20 -112 38 -120 41 -18 7 -28 10 -55 17 -55 13 -282 89 -292 98 -7 6 -13 8
-13 5 0 -7 -219 105 -332 169 -43 24 -82 44 -88 44 -5 0 -10 4 -10 9 0 5 -10
13 -22 17 -13 4 -34 14 -48 24 -14 9 -104 66 -200 125 -96 59 -184 116 -196
126 -11 11 -26 19 -32 19 -7 0 -12 5 -12 11 0 5 -4 8 -9 5 -5 -3 -11 1 -15 9
-3 8 -12 15 -21 15 -8 0 -15 3 -15 8 0 4 -18 18 -40 32 -22 14 -40 28 -40 32
0 5 -5 8 -11 8 -6 0 -24 10 -39 23 -15 12 -43 33 -61 47 -71 53 -246 196 -294
239 -153 141 -365 372 -365 399 0 5 -7 12 -15 16 -8 3 -15 12 -15 20 0 8 -4
16 -8 18 -4 2 -23 26 -42 53 -19 28 -37 52 -40 55 -3 3 -25 32 -50 65 -47 62
-77 99 -120 146 -14 15 -36 42 -50 59 -27 34 -208 215 -250 250 -14 12 -38 33
-55 48 -16 16 -48 41 -70 57 -22 17 -42 32 -45 36 -3 3 -34 26 -70 50 -157
108 -336 201 -480 249 -36 12 -72 24 -80 27 -8 3 -19 7 -25 8 -5 2 -28 8 -50
13 -22 6 -53 13 -70 16 -16 2 -62 10 -101 16 -61 10 -349 22 -356 15z"/>
</g>
</svg>
